# xmcd CD database file
#
# Track frame offsets:
#	150
#	21106
#	36012
#	52417
#	71119
#	98034
#	113942
#	133457
#	158831
#	174686
#	190180
#	216941
#	232517
#	257963
#	276836
#	292896
#	308865
#
# Disc length: 4357 seconds
#
# Revision: 0
# Processed by: cddbd v1.5.1PL0 Copyright (c) Steve Scherf et al.
# Submitted via: CDex 1.51
#
DISCID=01110311
DTITLE=ぬとぬとパラダイス - しあわせのうた
DYEAR=1900
DGENRE=Vocal
TTITLE0=LOVE LOVE MOTION!
TTITLE1=QueSeraSera
TTITLE2=夕焼け雲の向こうに
TTITLE3=おくじょー☆ダンスパラダイス
TTITLE4=C'
TTITLE5=1/2のロマンス
TTITLE6=THE GOLD
TTITLE7=素直だけじゃ足りない
TTITLE8=Radioジャック
TTITLE9=ひかりひとつひらり
TTITLE10=キミがいるから
TTITLE11=夢の都 TOKYO LIFE
TTITLE12=WonderfulDaisy
TTITLE13=月夜の晩にお茶しましょう
TTITLE14=おゆうぎプリンセス
TTITLE15=テレスコープ
TTITLE16=愛の惑星
EXTD=
EXTT0=
EXTT1=
EXTT2=
EXTT3=
EXTT4=
EXTT5=
EXTT6=
EXTT7=
EXTT8=
EXTT9=
EXTT10=
EXTT11=
EXTT12=
EXTT13=
EXTT14=
EXTT15=
EXTT16=
PLAYORDER=
